# xmcd
#
# Track frame offsets: 
#        150
#        14402
#        33185
#        57037
#        78392
#        96667
#        114052
#        131177
#        142000
#        154462
#        178685
#        224842
#        266705
#
# Disc length: 3939 seconds
#
# Revision: 3
# Processed by: cddbd v1.5.2PL0 Copyright (c) Steve Scherf et al.
# Submitted via: ExactAudioCopy v0.99pb4
#
DISCID=c10f610d
DTITLE=Various Artist - The Blues Night
DYEAR=1994
DGENRE=Blues
TTITLE0=Boom Boom - Darrell MansField
TTITLE1=You Know It Ain't Right - Darrell MansField
TTITLE2=The Mission - Darrell MansField
TTITLE3=Jesus Mentioned My Name - Trace Balin
TTITLE4=A Better Way - Trace Balin
TTITLE5=When I Get To Heaven - Trace Balin
TTITLE6=Great Change - Glenn Kaiser
TTITLE7=Witness Cloud - Glenn Kaiser
TTITLE8=Somebody On Your Bond - Glenn Kaiser
TTITLE9=Shaky Ground - Glenn Kaiser
TTITLE10=Everybody Wants To Go To Heaven - Larry Howard
TTITLE11=It's Only You - Larry Howard
TTITLE12=EveryDay Will Be Sunday - Jam Session
EXTD=
EXTT0=
EXTT1=
EXTT2=
EXTT3=
EXTT4=
EXTT5=
EXTT6=
EXTT7=
EXTT8=
EXTT9=
EXTT10=
EXTT11=
EXTT12=
PLAYORDER=
